<?xml version="1.0" standalone="no"?>
<!DOCTYPE svg PUBLIC "-//W3C//DTD SVG 20010904//EN"
 "http://www.w3.org/TR/2001/REC-SVG-20010904/DTD/svg10.dtd">
<svg version="1.0" xmlns="http://www.w3.org/2000/svg"
 width="1024.000000pt" height="1024.000000pt" viewBox="0 0 1024.000000 1024.000000"
 preserveAspectRatio="xMidYMid meet">
<metadata>
Created by potrace 1.11, written by Peter Selinger 2001-2013
</metadata>
<g transform="translate(0.000000,1024.000000) scale(0.100000,-0.100000)"
fill="#000000" stroke="none">
<path d="M2788 10225 c-68 -25 -177 -113 -161 -129 4 -3 2 -6 -4 -6 -24 0 -48
-86 -58 -210 -3 -36 -8 -81 -10 -100 -2 -19 -6 -73 -9 -120 -4 -47 -9 -101
-11 -120 -3 -19 -7 -66 -10 -105 -4 -38 -8 -88 -10 -110 -2 -22 -6 -74 -10
-115 -4 -41 -8 -91 -10 -110 -2 -19 -6 -66 -9 -105 -4 -38 -8 -90 -11 -114 -2
-24 -7 -75 -10 -115 -3 -39 -8 -92 -11 -118 -3 -26 -7 -71 -9 -100 -2 -29 -6
-75 -9 -103 -3 -27 -8 -84 -11 -125 -3 -41 -8 -92 -10 -112 -3 -20 -7 -74 -10
-119 -3 -46 -7 -95 -10 -109 -2 -14 -7 -57 -10 -95 -9 -124 -19 -242 -29 -340
-3 -27 -8 -79 -11 -115 -3 -36 -8 -90 -11 -120 -3 -30 -7 -80 -10 -110 -2 -30
-6 -74 -8 -97 -2 -23 -7 -77 -10 -120 -4 -43 -9 -100 -12 -128 -6 -57 -12
-124 -19 -210 -3 -33 -7 -82 -10 -110 -14 -124 -18 -204 -18 -410 -1 -221 8
-364 29 -465 3 -14 7 -36 9 -50 2 -14 11 -59 20 -100 9 -41 18 -83 20 -93 2
-9 6 -20 8 -25 3 -4 8 -24 11 -45 3 -20 10 -45 15 -55 5 -9 19 -48 31 -87 53
-168 168 -420 246 -543 19 -29 34 -56 34 -60 0 -4 7 -17 15 -27 8 -11 42 -58
74 -105 59 -84 82 -114 118 -157 10 -12 29 -37 43 -55 28 -37 267 -278 320
-324 19 -16 62 -51 95 -77 33 -26 65 -52 72 -57 23 -19 251 -170 257 -170 3 0
35 -18 70 -39 35 -22 67 -37 70 -34 3 4 6 1 6 -5 0 -7 3 -11 8 -10 4 1 25 -7
47 -19 67 -35 245 -108 340 -140 88 -29 117 -38 220 -67 46 -12 50 -16 50 -45
0 -17 3 -31 6 -31 4 0 4 -15 0 -33 -5 -18 -5 -41 -1 -52 4 -11 4 -29 0 -40 -4
-11 -4 -29 0 -40 4 -11 4 -29 0 -41 -5 -11 -5 -27 0 -34 5 -7 5 -23 1 -34 -4
-12 -5 -32 -1 -46 4 -14 4 -34 0 -45 -4 -11 -4 -29 0 -40 4 -11 4 -29 0 -41
-5 -11 -5 -27 0 -34 4 -7 5 -23 0 -34 -4 -11 -4 -33 0 -47 4 -15 4 -32 0 -39
-4 -7 -5 -24 -1 -39 4 -14 6 -35 5 -46 -3 -23 -4 -63 -4 -87 0 -10 0 -29 0
-43 0 -14 0 -32 0 -40 0 -8 0 -26 0 -40 0 -26 0 -45 0 -70 -1 -8 -1 -31 -1
-50 0 -19 0 -42 1 -50 0 -25 0 -44 0 -70 0 -14 0 -32 0 -40 0 -8 0 -26 0 -40
0 -30 0 -43 -1 -112 0 -29 2 -57 5 -62 4 -5 2 -12 -3 -15 -5 -3 -6 -21 -2 -38
4 -18 4 -45 0 -60 -4 -16 -3 -30 1 -33 5 -3 5 -18 0 -34 -4 -15 -4 -34 0 -41
5 -7 5 -23 0 -35 -5 -12 -5 -28 0 -35 4 -7 4 -24 0 -39 -4 -14 -4 -35 0 -46 4
-11 4 -29 0 -40 -4 -11 -4 -29 0 -40 4 -11 4 -27 -1 -36 -5 -9 -6 -19 -3 -22
7 -7 11 -127 4 -127 -6 0 -2 -120 5 -137 2 -7 1 -13 -4 -13 -4 0 -5 -20 -1
-45 7 -47 -6 -75 -27 -54 -6 6 -18 6 -36 0 -14 -6 -29 -6 -32 -2 -3 5 -20 5
-39 1 -19 -4 -37 -5 -40 -2 -8 8 -76 8 -76 0 0 -4 -6 -5 -14 -2 -21 8 -106 10
-106 2 0 -4 -13 -3 -29 2 -16 4 -32 6 -35 3 -7 -7 -96 -10 -96 -3 0 6 -87 3
-104 -3 -6 -2 -20 -1 -31 3 -11 4 -32 4 -47 -1 -14 -4 -29 -5 -32 -2 -7 7 -86
10 -86 3 0 -3 -21 -6 -48 -7 -42 -1 -97 -9 -97 -13 0 -1 -9 -3 -20 -5 -38 -5
-139 -45 -194 -76 -101 -56 -209 -155 -266 -242 -16 -23 -36 -54 -47 -69 -10
-15 -18 -31 -18 -36 0 -5 -7 -23 -16 -41 -14 -28 -29 -76 -50 -156 -3 -11 -7
-61 -9 -112 -3 -88 -2 -94 25 -132 57 -78 -153 -71 2207 -71 2331 0 2155 -5
2208 65 24 30 29 47 31 105 2 66 -15 183 -37 245 -25 70 -86 185 -124 233 -87
110 -213 204 -340 253 -108 42 -152 51 -252 53 -29 1 -53 3 -53 6 0 7 -69 4
-76 -3 -3 -3 -12 -3 -20 0 -20 8 -174 9 -174 1 0 -4 -13 -3 -29 2 -15 4 -34 4
-42 0 -7 -5 -17 -6 -22 -3 -12 7 -151 8 -163 1 -5 -3 -18 -2 -29 2 -11 4 -30
4 -41 -1 -12 -4 -25 -5 -28 -2 -8 8 -131 7 -145 -1 -6 -4 -12 -6 -12 -4 -3 7
-7 45 -8 68 0 14 -1 36 -1 50 -1 14 -1 32 0 40 0 8 0 26 -1 40 0 14 0 32 0 40
1 8 1 26 0 40 0 14 -1 36 -1 50 0 14 1 36 1 50 1 14 1 33 1 43 0 9 0 28 0 42
0 14 0 32 0 40 0 8 0 26 0 40 0 26 0 45 0 70 1 8 1 31 1 50 0 19 0 42 -1 50 0
25 0 44 0 70 0 14 0 32 0 40 0 8 0 26 0 40 0 30 0 43 1 112 0 29 -2 57 -5 62
-4 5 -2 12 3 15 5 3 6 21 2 38 -4 18 -4 45 0 60 4 16 3 30 -1 33 -5 3 -5 18 0
34 4 15 4 34 0 41 -5 7 -5 23 0 35 5 12 5 28 0 35 -4 7 -4 24 0 39 4 14 4 35
0 46 -4 11 -4 29 0 40 4 11 4 29 0 40 -4 11 -4 27 0 35 4 8 4 24 0 34 -3 11
-3 37 0 58 4 21 4 41 -1 43 -4 3 -4 18 1 34 4 15 4 34 0 41 -5 7 -5 23 0 35 5
12 5 28 0 35 -4 7 -4 24 0 39 4 14 4 35 0 46 -4 11 -4 29 0 40 4 11 4 29 0 41
-5 11 -4 27 0 34 5 7 5 23 0 34 -4 12 -4 30 0 41 4 11 4 32 -1 47 -4 15 -4 30
1 33 5 3 7 11 4 18 -7 19 -10 107 -4 107 4 0 5 13 2 29 -3 23 0 31 20 37 12 4
26 8 30 9 3 0 10 3 14 7 4 5 17 8 29 8 13 0 39 7 59 15 20 8 37 14 38 13 3 -2
104 30 133 42 11 4 47 18 80 30 206 77 570 284 712 405 7 5 18 15 25 20 93 71
322 290 399 381 107 126 233 302 303 424 33 57 144 279 173 345 41 96 113 306
128 378 2 10 7 27 10 37 7 22 9 33 34 170 41 223 46 283 46 535 -1 189 -6 302
-20 405 -3 19 -7 65 -10 103 -6 76 -15 188 -20 232 -2 17 -6 66 -10 110 -9
107 -13 149 -19 220 -3 33 -8 89 -11 125 -3 36 -8 83 -10 105 -2 22 -7 72 -10
110 -3 39 -8 88 -10 110 -5 43 -14 144 -21 227 -2 29 -6 80 -9 113 -3 33 -7
76 -9 95 -2 19 -7 76 -11 125 -3 50 -8 104 -11 120 -4 28 -9 91 -19 230 -3 33
-7 78 -9 100 -3 22 -7 69 -10 105 -4 36 -9 92 -12 125 -3 33 -7 80 -9 105 -3
45 -21 245 -30 330 -3 25 -7 81 -10 125 -3 44 -7 91 -10 105 -4 22 -7 58 -20
230 -8 96 -17 169 -25 211 -18 91 -85 175 -175 219 l-50 25 -2305 2 c-1933 1
-2311 -1 -2342 -12z m753 -945 c16 5 29 5 29 0 0 -5 13 -5 30 0 17 5 30 6 30
2 0 -4 16 -7 35 -7 19 0 35 3 35 7 0 4 14 3 30 -2 17 -5 30 -5 30 0 0 5 12 5
28 1 15 -4 38 -5 52 -1 14 4 37 3 53 -1 15 -4 27 -5 27 -1 0 4 29 7 65 7 36 0
65 -3 65 -7 0 -4 14 -3 30 2 17 5 30 5 30 0 0 -5 13 -5 30 0 17 5 30 5 30 0 0
-5 13 -5 30 0 17 5 32 5 35 0 3 -5 15 -6 29 0 12 4 29 4 36 0 8 -5 21 -5 30 0
9 5 22 5 30 0 8 -5 21 -5 30 0 9 5 22 5 29 1 7 -5 29 -5 49 -1 21 3 49 3 65
-1 15 -4 27 -4 27 -1 0 4 29 7 65 7 36 0 65 -3 65 -7 0 -4 14 -3 30 2 17 5 30
5 30 0 0 -5 13 -5 30 0 17 5 30 5 30 0 0 -5 13 -5 30 0 17 5 32 5 35 0 3 -5
15 -6 29 0 12 4 29 4 36 0 8 -5 21 -5 30 0 9 5 22 5 30 0 8 -5 21 -5 30 0 9 5
22 5 28 1 7 -4 35 -5 62 -1 27 4 55 3 62 -1 6 -4 19 -4 28 1 9 5 22 5 30 0 8
-5 21 -5 30 0 9 5 22 5 30 0 7 -4 24 -4 36 0 14 6 26 5 29 0 3 -5 18 -5 35 0
17 5 30 5 30 0 0 -5 13 -5 30 0 17 5 30 5 30 0 0 -5 13 -5 30 0 17 5 30 6 30
2 0 -4 16 -7 35 -7 19 0 35 3 35 7 0 4 14 3 30 -2 17 -5 30 -5 30 0 0 5 6 7
14 4 20 -8 116 -10 116 -3 0 4 16 3 35 -1 19 -4 35 -4 35 0 0 4 18 4 40 0 22
-4 40 -4 40 0 0 4 16 4 35 0 19 -4 35 -5 35 -1 0 7 96 5 116 -3 8 -3 14 -1 14
4 0 5 13 5 30 0 17 -5 30 -5 30 0 0 5 13 5 30 0 17 -5 30 -5 30 0 0 5 13 5 30
0 17 -5 30 -5 30 0 0 5 13 5 30 0 17 -5 30 -5 30 0 0 5 13 5 30 0 17 -5 30 -5
30 0 0 5 13 5 30 0 17 -5 30 -5 30 0 0 5 13 5 30 0 17 -5 30 -5 30 0 0 5 13 5
30 0 17 -5 30 -5 30 0 0 5 12 5 28 1 15 -4 41 -6 59 -4 18 1 34 -1 36 -5 3 -4
8 -45 11 -92 4 -47 8 -101 11 -120 2 -19 7 -71 10 -115 11 -128 14 -167 19
-220 3 -27 8 -84 12 -125 3 -41 7 -91 10 -110 2 -19 6 -66 9 -105 3 -38 8 -88
10 -110 3 -22 7 -71 10 -110 3 -38 8 -90 10 -115 3 -25 7 -72 10 -105 2 -33 8
-96 12 -140 11 -130 15 -119 -47 -125 -30 -3 -80 -3 -111 0 -31 3 -70 3 -87
-1 -17 -3 -35 -3 -41 1 -6 3 -34 3 -62 0 -27 -4 -52 -4 -54 0 -2 4 -24 4 -48
0 -24 -3 -52 -3 -63 0 -10 4 -33 4 -50 0 -18 -4 -37 -4 -43 -1 -6 4 -34 4 -62
1 -27 -4 -52 -4 -54 0 -2 4 -24 4 -48 0 -24 -3 -52 -3 -63 0 -10 4 -33 4 -50
0 -18 -4 -37 -4 -43 -1 -6 4 -34 4 -62 1 -27 -4 -52 -4 -54 0 -2 4 -24 4 -48
0 -24 -3 -52 -3 -63 0 -10 4 -33 4 -50 0 -18 -4 -37 -4 -43 -1 -6 4 -34 4 -62
1 -27 -4 -52 -4 -54 0 -2 4 -24 4 -48 0 -24 -3 -52 -3 -63 0 -10 4 -33 4 -50
0 -18 -4 -37 -4 -43 -1 -6 4 -34 4 -62 1 -27 -4 -52 -4 -54 0 -2 4 -26 4 -52
0 -26 -4 -51 -6 -55 -4 -8 5 -76 6 -166 2 -34 -2 -62 -1 -62 2 0 4 -23 4 -130
0 -14 -1 -42 -1 -62 -1 -41 0 -49 0 -121 1 -27 0 -52 -2 -57 -5 -5 -3 -11 -1
-14 3 -3 5 -26 6 -51 2 -25 -4 -45 -4 -45 -1 0 5 -22 5 -130 1 -14 -1 -42 -1
-62 -1 -41 0 -49 0 -121 1 -27 0 -52 -2 -57 -5 -5 -3 -11 -1 -14 3 -3 5 -26 6
-51 2 -25 -4 -45 -4 -45 -1 0 5 -22 5 -130 1 -14 -1 -42 -1 -62 -1 -41 0 -49
0 -121 1 -27 0 -52 -2 -57 -5 -5 -3 -11 -1 -15 5 -4 6 -11 8 -16 4 -8 -4 -125
-6 -177 -2 -8 1 -11 13 -8 37 5 34 13 118 22 236 2 28 6 68 8 90 2 22 7 76 11
120 4 44 8 96 10 115 2 19 6 67 9 105 4 39 8 90 11 115 3 25 7 74 10 110 6 65
10 116 20 220 6 59 11 121 20 236 3 38 7 79 9 91 3 11 6 42 7 69 2 33 8 51 18
55 9 4 17 3 19 -1 2 -5 16 -4 33 0z"/>
</g>
</svg>
