<?xml version="1.0" standalone="no"?>
<!DOCTYPE svg PUBLIC "-//W3C//DTD SVG 20010904//EN"
 "http://www.w3.org/TR/2001/REC-SVG-20010904/DTD/svg10.dtd">
<svg version="1.0" xmlns="http://www.w3.org/2000/svg"
 width="512.000000pt" height="512.000000pt" viewBox="0 0 512.000000 512.000000"
 preserveAspectRatio="xMidYMid meet">
<metadata>
Created by potrace 1.14, written by Peter Selinger 2001-2017
</metadata>
<g transform="translate(0.000000,512.000000) scale(0.100000,-0.100000)"
fill="#000000" stroke="none">
<path d="M3542 5089 c-105 -52 -156 -134 -157 -254 -1 -56 -7 -82 -31 -130
-71 -145 -16 -311 129 -387 34 -18 59 -23 127 -23 74 0 92 4 139 28 36 19 64
27 83 25 40 -6 134 9 169 27 129 67 190 224 139 359 -26 69 -86 134 -149 162
-32 14 -46 28 -60 59 -28 62 -66 101 -133 134 -50 25 -73 31 -128 31 -55 0
-78 -6 -128 -31z m199 -147 c38 -21 59 -63 59 -116 0 -51 0 -51 73 -61 138
-18 175 -190 54 -246 -53 -24 -71 -23 -126 1 l-44 20 -48 -45 c-44 -41 -52
-45 -100 -45 -45 0 -55 4 -84 33 -63 63 -59 134 9 199 l44 41 -19 41 c-22 49
-24 88 -5 124 39 75 114 97 187 54z"/>
<path d="M1522 4955 c-23 -7 -49 -19 -58 -25 -9 -8 -49 -13 -102 -14 -68 -1
-96 -6 -127 -23 -80 -43 -144 -138 -145 -215 0 -20 -12 -59 -26 -88 -52 -104
-40 -215 33 -300 69 -81 189 -112 293 -75 23 8 46 12 51 10 15 -10 114 -7 155
4 51 14 128 80 155 133 11 22 23 62 26 91 4 36 16 64 39 94 109 143 36 356
-140 408 -60 18 -97 18 -154 0z m128 -160 c82 -42 76 -148 -10 -196 -28 -16
-39 -28 -35 -39 4 -8 9 -36 12 -62 5 -37 1 -52 -16 -77 -32 -45 -82 -56 -142
-30 l-47 21 -41 -27 c-120 -80 -242 46 -147 152 31 36 33 41 28 99 -4 58 -3
62 29 93 30 30 37 33 80 29 25 -3 60 -15 77 -27 l30 -21 31 37 c52 63 95 77
151 48z"/>
<path d="M2877 4455 c-20 -8 -47 -21 -58 -29 -16 -11 -39 -13 -93 -9 -56 4
-82 1 -124 -15 l-52 -20 -68 35 c-62 33 -72 35 -142 31 -89 -4 -138 -25 -196
-84 -49 -49 -84 -134 -84 -204 l0 -49 -50 -22 c-63 -27 -127 -97 -143 -156
l-11 -43 -81 0 c-63 0 -91 -5 -131 -24 -40 -19 -67 -24 -125 -23 -55 1 -86 -5
-120 -20 -87 -39 -148 -122 -156 -213 -3 -25 -15 -68 -29 -96 -32 -65 -39
-136 -21 -195 l14 -46 -60 -17 c-49 -14 -70 -27 -117 -75 -47 -46 -62 -70 -75
-116 -22 -75 -15 -141 24 -220 l30 -60 -23 -35 c-34 -53 -55 -113 -66 -190
-10 -72 -22 5 391 -2492 l11 -68 1179 0 c648 0 1179 4 1179 8 0 5 92 566 205
1248 223 1344 216 1285 170 1409 -29 80 -23 134 20 191 49 64 63 139 43 218
-10 38 -13 67 -7 77 5 9 11 41 15 70 7 63 -14 134 -55 188 -30 40 -106 91
-134 91 -16 0 -18 4 -11 28 27 85 0 196 -64 266 -60 64 -185 95 -270 65 -27
-9 -35 -7 -66 16 -56 42 -128 65 -207 65 -55 0 -76 4 -98 21 l-29 21 28 45
c96 151 39 343 -124 419 -59 28 -157 31 -219 9z m163 -155 c32 -17 62 -60 67
-98 7 -55 -18 -102 -73 -137 -37 -23 -44 -33 -39 -49 4 -12 9 -51 12 -88 5
-67 6 -68 34 -68 49 0 96 -26 124 -68 l27 -41 41 16 c57 20 126 19 171 -2 31
-15 66 -53 123 -134 2 -3 16 7 31 21 86 80 169 81 207 3 30 -64 10 -110 -72
-165 -21 -15 -22 -17 -8 -70 8 -30 15 -71 15 -92 0 -21 5 -38 10 -38 6 0 34
14 63 30 68 38 115 39 156 4 32 -27 48 -77 36 -113 -3 -12 -18 -34 -31 -51
l-25 -29 31 -42 c48 -67 35 -137 -33 -173 -33 -19 -34 -19 -102 9 -174 69
-367 31 -498 -101 l-54 -55 -59 57 c-180 176 -462 175 -640 -2 l-54 -54 -54
54 c-178 177 -460 178 -640 2 l-59 -57 -54 55 c-129 130 -325 170 -494 102
-74 -30 -87 -24 -96 41 -7 50 16 97 60 123 43 27 93 25 149 -5 l47 -25 41 44
c23 25 68 62 101 83 32 21 59 41 59 45 0 4 -38 19 -84 33 -64 20 -91 33 -110
56 -40 47 -31 115 22 162 17 16 19 27 15 75 -5 52 -3 61 21 89 38 45 85 51
148 18 l50 -26 35 40 c63 74 139 73 250 -3 37 -25 73 -46 78 -46 6 0 27 24 47
52 37 51 38 52 19 72 -77 85 -38 196 71 200 25 1 45 13 82 48 l49 48 -18 53
c-24 71 -15 116 31 156 29 26 43 31 84 31 62 0 100 -30 141 -113 17 -33 34
-56 38 -51 4 5 25 31 46 57 66 82 123 97 208 51 l48 -25 22 27 c12 15 27 34
32 41 26 34 109 46 155 23z m-1545 -1528 c33 -16 75 -46 94 -67 72 -83 64 -17
167 -1308 51 -650 94 -1197 94 -1214 l0 -33 -195 0 c-194 0 -195 0 -200 23 -3
12 -91 540 -196 1172 -133 806 -188 1163 -185 1193 20 153 140 259 296 261 52
1 77 -5 125 -27z m728 12 c60 -20 135 -88 167 -150 l25 -49 3 -1217 2 -1218
-205 0 -205 0 0 23 c0 12 -41 535 -91 1162 -50 627 -88 1167 -86 1200 13 187
208 311 390 249z m760 -4 c103 -39 176 -136 184 -245 2 -33 -36 -573 -86
-1200 -50 -627 -91 -1150 -91 -1162 l0 -23 -205 0 -205 0 2 1218 3 1217 25 49
c31 60 106 130 163 149 61 22 147 21 210 -3z m780 -10 c86 -43 150 -135 163
-232 3 -30 -52 -387 -185 -1193 -105 -632 -193 -1160 -196 -1172 -5 -23 -6
-23 -200 -23 l-195 0 0 33 c0 17 43 564 94 1214 103 1291 95 1225 167 1308 19
21 61 51 94 67 53 26 69 29 135 26 55 -3 88 -10 123 -28z"/>
<path d="M2402 3765 c-84 -26 -155 -93 -182 -172 -10 -26 -19 -33 -60 -43 -95
-23 -178 -101 -205 -194 -26 -86 -26 -86 65 -86 70 0 80 2 80 18 0 30 39 82
75 99 37 18 34 18 173 -14 l24 -6 -7 75 c-8 88 6 127 58 158 68 42 142 12 190
-78 l28 -52 46 35 c25 19 56 35 69 35 27 0 64 -32 64 -55 0 -12 16 -15 80 -15
76 0 80 1 80 23 0 31 -43 118 -71 144 -44 40 -117 66 -168 59 -41 -5 -51 -3
-94 28 -74 53 -162 67 -245 41z"/>
<path d="M3150 3399 c-24 -11 -53 -27 -62 -36 -14 -12 -40 -17 -106 -17 -96
-1 -127 -13 -181 -67 -40 -39 -69 -95 -77 -148 l-7 -41 80 0 80 0 9 31 c20 71
96 91 166 43 23 -16 48 -33 55 -37 9 -6 21 9 39 48 31 64 59 87 108 87 45 0
83 -26 98 -68 l12 -34 78 0 c88 0 86 -2 62 79 -42 143 -217 222 -354 160z"/>
<path d="M1271 2509 c-24 -5 -46 -11 -49 -14 -6 -6 84 -574 92 -582 4 -4 117
13 142 22 9 3 -32 283 -81 553 -7 36 -18 38 -104 21z"/>
<path d="M1510 1078 c-30 -6 -56 -11 -57 -12 -3 -3 57 -359 62 -364 4 -5 144
14 150 20 1 2 -11 85 -28 186 -34 205 -22 189 -127 170z"/>
<path d="M2875 2510 c-7 -12 -27 -322 -20 -328 3 -4 39 -8 79 -10 l72 -4 13
167 c6 92 11 168 9 170 -6 6 -150 11 -153 5z"/>
<path d="M2829 1944 c0 -5 -10 -133 -23 -284 -12 -151 -21 -277 -19 -280 8 -9
153 -12 154 -4 0 5 10 133 23 284 13 151 21 277 19 280 -8 9 -153 12 -154 4z"/>
<path d="M2736 768 c-3 -13 -7 -57 -10 -99 l-6 -76 77 -7 c42 -3 78 -5 79 -3
2 1 6 45 10 96 8 110 8 111 -83 111 -57 0 -63 -2 -67 -22z"/>
<path d="M4547 4396 c-20 -8 -43 -18 -50 -24 -6 -5 -46 -9 -87 -9 -64 1 -85
-3 -132 -26 -88 -43 -146 -130 -148 -218 0 -20 -12 -57 -26 -82 -30 -55 -41
-136 -25 -193 36 -135 180 -226 307 -194 27 7 92 13 144 14 102 1 155 19 211
72 36 34 71 108 77 163 3 29 17 63 37 93 98 141 51 323 -100 394 -58 27 -147
31 -208 10z m150 -158 c26 -13 53 -65 53 -103 0 -27 -39 -74 -88 -105 -21 -13
-22 -18 -13 -43 21 -55 14 -96 -23 -133 -41 -41 -82 -45 -139 -14 l-38 21 -30
-25 c-57 -49 -120 -46 -164 6 -36 43 -31 105 13 151 27 30 29 36 25 87 -5 50
-2 59 21 87 38 45 85 51 148 18 l50 -26 39 45 c50 56 84 64 146 34z"/>
<path d="M700 4021 c-14 -5 -41 -16 -60 -27 -27 -14 -56 -19 -125 -19 -75 0
-98 -4 -135 -23 -95 -50 -154 -136 -167 -242 -12 -100 53 -217 152 -276 24
-14 46 -35 49 -48 12 -49 75 -114 140 -146 59 -29 72 -32 138 -28 87 5 137 26
194 84 46 46 84 133 84 193 0 27 7 44 24 60 69 65 93 220 48 312 -32 65 -96
125 -159 149 -54 20 -136 25 -183 11z m154 -172 c83 -65 71 -174 -24 -228 -34
-19 -41 -27 -35 -45 24 -81 18 -130 -21 -169 -82 -82 -208 -34 -222 85 l-7 53
-48 12 c-65 16 -96 37 -113 78 -28 67 -9 130 49 165 44 27 90 25 147 -6 l48
-26 49 51 c47 48 52 51 100 51 36 0 58 -6 77 -21z"/>
</g>
</svg>
